<svg xmlns="http://www.w3.org/2000/svg" viewBox="0 0 56 56"><path fill="#fcc62d" d="M31 56C17.469 56 6.5 43.464 6.5 28S17.469 0 31 0s24.5 12.536 24.5 28S44.531 56 31 56"/><path fill="#e4af18" d="M6.5 28C6.5 13.698 15.885 1.908 28 .217A21.574 21.574 0 0025 0C11.469 0 .5 12.536.5 28S11.469 56 25 56c1.016 0 2.016-.079 3-.216C15.885 54.092 6.5 42.302 6.5 28"/><path fill="#ce9912" d="M6.499 29.001H.501c.02.673.058 1.34.119 2h6.003a31.245 31.245 0 01-.124-2M6.727 24.001H.731a32.71 32.71 0 00-.185 2h5.999c.043-.672.101-1.34.182-2M7.049 34.001H1.048c.13.676.28 1.343.451 2h5.999a30.735 30.735 0 01-.449-2M8.448 39.001H2.444c.255.682.536 1.347.837 2h6.002a28.796 28.796 0 01-.835-2M7.773 19.001H1.778a31.035 31.035 0 00-.528 2h6.007c.151-.675.321-1.344.516-2M9.764 14.002H3.763c-.329.651-.64 1.317-.924 2h6.004c.284-.683.591-1.35.921-2M13.845 8.002H7.838a26.744 26.744 0 00-1.622 2h6.005a26.519 26.519 0 011.624-2M19.959 3.001h-6.014a24.126 24.126 0 00-2.936 2h6.009a24.254 24.254 0 012.941-2M11.519 45.001H5.517c.464.693.954 1.36 1.473 2h6.007a27.527 27.527 0 01-1.478-2M9.834 50.001a24.774 24.774 0 002.524 2h6.015a24.735 24.735 0 01-2.542-2H9.834z"/><path fill="#ffd949" d="M31.085 50.524H31c-.7 0-1.405-.042-2.095-.124a1 1 0 01-.874-1.112c.064-.548.547-.93 1.111-.874.61.073 1.236.11 1.857.11.553 0 1.042.448 1.042 1 .001.552-.403 1-.956 1m5.816-1.077a1 1 0 01-.354-1.936 16.491 16.491 0 001.706-.757 1 1 0 11.914 1.778c-.621.32-1.265.605-1.915.85a.982.982 0 01-.351.065m-13.535-.764a.987.987 0 01-.452-.109 18.753 18.753 0 01-1.809-1.048.998.998 0 01-.289-1.384 1.001 1.001 0 011.385-.288c.521.341 1.065.657 1.618.937a.999.999 0 01-.453 1.892m20.111-3.558a1.001 1.001 0 01-.712-1.703c.437-.44.858-.913 1.259-1.403a.999.999 0 111.551 1.262 21.87 21.87 0 01-1.387 1.547.998.998 0 01-.711.297m-26.22-1.407a.995.995 0 01-.773-.366 21.76 21.76 0 01-1.238-1.664 1 1 0 111.657-1.119c.356.527.736 1.038 1.129 1.516a1 1 0 01-.775 1.633m30.613-5.139a1.001 1.001 0 01-.916-1.4c.251-.576.479-1.172.682-1.769a1.003 1.003 0 011.268-.629c.522.177.804.744.628 1.267a25.533 25.533 0 01-.743 1.93 1.005 1.005 0 01-.919.601m-34.425-1.766a1 1 0 01-.947-.678 25.034 25.034 0 01-.585-1.982 1 1 0 011.942-.483c.151.611.332 1.224.535 1.82a1 1 0 01-.945 1.323m36.316-5.898l-.078-.003a.999.999 0 01-.92-1.074c.048-.603.07-1.221.07-1.838 0-.552.448-1.033 1-1.033.553 0 1 .415 1 .968V28c0 .669-.025 1.339-.076 1.992a1 1 0 01-.996.923m-37.595-1.904a.99.99 0 01-1-.988V28c0-.675.028-1.36.081-2.036a1.008 1.008 0 011.075-.918 1 1 0 01.919 1.075A24.104 24.104 0 0013.166 28a1.01 1.01 0 01-1 1.011m36.938-5.964c-.447 0-.856-.302-.97-.756a21.8 21.8 0 00-.54-1.819 1.002 1.002 0 01.621-1.271.998.998 0 011.272.621c.222.649.42 1.316.587 1.981a1 1 0 01-.97 1.244m-35.673-1.816a.998.998 0 01-.946-1.322c.221-.654.473-1.303.748-1.929a1.001 1.001 0 011.832.803 22.303 22.303 0 00-.687 1.768 1 1 0 01-.947.68m32.472-5.394a.998.998 0 01-.829-.439 20.662 20.662 0 00-1.131-1.513 1 1 0 111.545-1.271c.437.532.854 1.092 1.242 1.662a1.002 1.002 0 01-.827 1.561m-28.674-1.52a.998.998 0 01-.774-1.632c.439-.538.907-1.058 1.389-1.544a1 1 0 111.42 1.408c-.437.441-.86.913-1.261 1.401a.996.996 0 01-.774.367m23.082-4.03c-.188 0-.377-.053-.546-.162a16.468 16.468 0 00-1.62-.933 1 1 0 01.901-1.786c.617.31 1.227.662 1.813 1.044a1 1 0 01-.548 1.837m-16.983-.949a1.001 1.001 0 01-.457-1.891c.625-.318 1.27-.604 1.917-.845a.998.998 0 011.288.586 1.002 1.002 0 01-.586 1.287 16.35 16.35 0 00-1.708.753c-.146.074-.301.11-.454.11m9.606-1.75a.91.91 0 01-.115-.007A15.822 15.822 0 0031 7.476c-.552 0-1.021-.448-1.021-1s.426-1 .978-1H31c.681 0 1.371.04 2.048.119a.999.999 0 01-.114 1.993"/><path fill="#ce9912" d="M38.454 26.084c1.565-1.106 2.358-2.727 2.358-4.831 0-1.785-.607-3.298-1.804-4.494s-2.765-1.803-4.659-1.803H24.245c-.605 0-.996.392-.996.997 0 .607.391.998.996.998l2.315-.003.003 14.509h-3.011c-.55 0-1 .45-1 1s.45 1 1 1h3.012v3.694h-2.319c-.605 0-.996.391-.996.997 0 .604.391.997.996.997h11.429c2.141 0 3.827-.619 5.014-1.841 1.182-1.218 1.78-2.795 1.78-4.688 0-3.403-1.349-5.594-4.014-6.532m-9.901-9.133h5.797c1.397 0 2.469.39 3.273 1.194.804.805 1.195 1.8 1.195 3.042 0 1.246-.399 2.265-1.219 3.115-.814.845-1.823 1.255-3.085 1.255l-5.96.003-.002-8.604c.001 0-.041-.005.001-.005m10.66 18.939c-.849.849-2.006 1.261-3.539 1.261l-7.119.004-.001-3.698h3.999c.551 0 1-.45 1-1s-.449-1-1-1h-3.999l-.001-3.899s-.043-.006-.001-.006h7.122c1.533 0 2.69.412 3.539 1.261.85.849 1.262 2.007 1.262 3.539 0 1.531-.412 2.689-1.262 3.538"/></svg>